<svg height="452pt" viewBox="0 -2 452.01069 452" width="452pt" xmlns="http://www.w3.org/2000/svg"><path d="m34.011719 64.003906h384v-40c0-13.253906-10.742188-23.99999975-24-23.99999975h-336c-13.253907 0-24 10.74609375-24 23.99999975zm0 0"/><path d="m34.011719 216.003906h384v-136h-384zm288-48h48v16h-48zm-80 0h48v16h-48zm-80 0h48v16h-48zm-80 0h48v16h-48zm0 0"/><path d="m450.996094 416.003906h-449.964844l-.683594 3.921875c-1.203125 6.976563.734375 14.128907 5.296875 19.542969s11.28125 8.539062 18.359375 8.535156h404c7.082032.003906 13.800782-3.121094 18.363282-8.535156 4.558593-5.414062 6.496093-12.566406 5.292968-19.542969zm0 0"/><path d="m3.78125 400.003906h444.464844l-28.976563-168h-386.511719zm286.230469-88h80v16h-80zm-64 16c-16.09375.019532-29.6875-11.9375-31.71875-27.902344-2.03125-15.964843 8.132812-30.949218 23.71875-34.960937v-17.136719h16v17.136719c14.085937 3.636719 23.945312 16.316406 24 30.863281h-16c0-8.835937-7.160157-16-16-16-8.835938 0-16 7.164063-16 16 0 8.839844 7.164062 16 16 16 16.097656-.019531 29.691406 11.941406 31.722656 27.90625s-8.136719 30.949219-23.722656 34.960938v17.132812h-16v-17.132812c-14.082031-3.636719-23.945313-16.320313-24-30.867188h16c0 8.839844 7.164062 16 16 16 8.839843 0 16-7.160156 16-16 0-8.835937-7.160157-16-16-16zm-144-16h80v16h-80zm0 0"/></svg>